<svg width="35" height="36" viewBox="0 0 35 36" fill="none" xmlns="http://www.w3.org/2000/svg">
<path d="M14.6566 0.391999V3.8H9.66463V17H6.13663V3.8H1.14463V0.391999H14.6566ZM15.4711 8.696V8.672C15.4711 7.424 15.6631 6.272 16.0471 5.216C16.4471 4.16 17.0151 3.256 17.7511 2.504C18.4871 1.752 19.3831 1.168 20.4391 0.751999C21.4951 0.319999 22.6871 0.103999 24.0151 0.103999H24.0391C25.3671 0.103999 26.5591 0.319999 27.6151 0.751999C28.6711 1.168 29.5671 1.752 30.3031 2.504C31.0391 3.256 31.5991 4.16 31.9831 5.216C32.3831 6.272 32.5831 7.424 32.5831 8.672V8.696C32.5831 9.96 32.3831 11.12 31.9831 12.176C31.5991 13.216 31.0391 14.12 30.3031 14.888C29.5671 15.64 28.6711 16.232 27.6151 16.664C26.5591 17.08 25.3671 17.288 24.0391 17.288H24.0151C22.6871 17.288 21.4951 17.08 20.4391 16.664C19.3831 16.232 18.4871 15.64 17.7511 14.888C17.0151 14.12 16.4471 13.216 16.0471 12.176C15.6631 11.12 15.4711 9.96 15.4711 8.696ZM19.0231 8.696C19.0231 9.464 19.1351 10.176 19.3591 10.832C19.5991 11.472 19.9351 12.032 20.3671 12.512C20.7991 12.976 21.3191 13.336 21.9271 13.592C22.5511 13.848 23.2471 13.976 24.0151 13.976H24.0391C24.8071 13.976 25.4951 13.848 26.1031 13.592C26.7271 13.336 27.2551 12.976 27.6871 12.512C28.1191 12.032 28.4471 11.472 28.6711 10.832C28.9111 10.176 29.0311 9.464 29.0311 8.696V8.672C29.0311 7.904 28.9111 7.2 28.6711 6.56C28.4471 5.92 28.1191 5.368 27.6871 4.904C27.2551 4.424 26.7271 4.056 26.1031 3.8C25.4951 3.544 24.8071 3.416 24.0391 3.416H24.0151C23.2471 3.416 22.5511 3.544 21.9271 3.8C21.3191 4.056 20.7991 4.424 20.3671 4.904C19.9351 5.368 19.5991 5.92 19.3591 6.56C19.1351 7.2 19.0231 7.904 19.0231 8.672V8.696ZM7.24372 18.392C8.57172 18.392 9.74772 18.592 10.7717 18.992C11.8117 19.392 12.6837 19.96 13.3877 20.696C14.0917 21.416 14.6277 22.288 14.9957 23.312C15.3797 24.32 15.5717 25.448 15.5717 26.696V26.72C15.5717 27.952 15.3797 29.08 14.9957 30.104C14.6277 31.112 14.0917 31.984 13.3877 32.72C12.6837 33.44 11.8117 34 10.7717 34.4C9.74772 34.8 8.57172 35 7.24372 35H0.739719V18.392H7.24372ZM4.29172 31.664H7.24372C8.01172 31.664 8.69172 31.544 9.28372 31.304C9.87572 31.064 10.3717 30.728 10.7717 30.296C11.1877 29.864 11.4997 29.344 11.7077 28.736C11.9317 28.128 12.0437 27.456 12.0437 26.72V26.696C12.0437 25.944 11.9317 25.264 11.7077 24.656C11.4997 24.048 11.1877 23.528 10.7717 23.096C10.3717 22.664 9.87572 22.328 9.28372 22.088C8.69172 21.848 8.01172 21.728 7.24372 21.728H4.29172V31.664ZM17.1 26.696V26.672C17.1 25.424 17.292 24.272 17.676 23.216C18.076 22.16 18.644 21.256 19.38 20.504C20.116 19.752 21.012 19.168 22.068 18.752C23.124 18.32 24.316 18.104 25.644 18.104H25.668C26.996 18.104 28.188 18.32 29.244 18.752C30.3 19.168 31.196 19.752 31.932 20.504C32.668 21.256 33.228 22.16 33.612 23.216C34.012 24.272 34.212 25.424 34.212 26.672V26.696C34.212 27.96 34.012 29.12 33.612 30.176C33.228 31.216 32.668 32.12 31.932 32.888C31.196 33.64 30.3 34.232 29.244 34.664C28.188 35.08 26.996 35.288 25.668 35.288H25.644C24.316 35.288 23.124 35.08 22.068 34.664C21.012 34.232 20.116 33.64 19.38 32.888C18.644 32.12 18.076 31.216 17.676 30.176C17.292 29.12 17.1 27.96 17.1 26.696ZM20.652 26.696C20.652 27.464 20.764 28.176 20.988 28.832C21.228 29.472 21.564 30.032 21.996 30.512C22.428 30.976 22.948 31.336 23.556 31.592C24.18 31.848 24.876 31.976 25.644 31.976H25.668C26.436 31.976 27.124 31.848 27.732 31.592C28.356 31.336 28.884 30.976 29.316 30.512C29.748 30.032 30.076 29.472 30.3 28.832C30.54 28.176 30.66 27.464 30.66 26.696V26.672C30.66 25.904 30.54 25.2 30.3 24.56C30.076 23.92 29.748 23.368 29.316 22.904C28.884 22.424 28.356 22.056 27.732 21.8C27.124 21.544 26.436 21.416 25.668 21.416H25.644C24.876 21.416 24.18 21.544 23.556 21.8C22.948 22.056 22.428 22.424 21.996 22.904C21.564 23.368 21.228 23.92 20.988 24.56C20.764 25.2 20.652 25.904 20.652 26.672V26.696Z" fill="black"/>
</svg>
